<?xml version="1.0" encoding="UTF-8" standalone="no"?>
<!DOCTYPE svg PUBLIC "-//W3C//DTD SVG 1.1//EN" "http://www.w3.org/Graphics/SVG/1.1/DTD/svg11.dtd">
<svg width="100%" height="100%" viewBox="0 0 104 72" version="1.1" xmlns="http://www.w3.org/2000/svg" xmlns:xlink="http://www.w3.org/1999/xlink" xml:space="preserve" xmlns:serif="http://www.serif.com/" style="fill-rule:evenodd;clip-rule:evenodd;stroke-linejoin:round;stroke-miterlimit:2;">
    <g transform="matrix(1,0,0,1,-3.21827,-3.88426)">
        <g transform="matrix(1,0,0,1,3.21827,3.88426)">
            <path d="M101.954,35.901C100.994,32.715 100.515,31.121 99.82,29.427C98.481,26.15 96.776,23.485 94.223,20.184C88.247,12.469 85.26,8.605 80.386,5.526C69.81,-1.16 58.68,0.023 57.411,0.176C53.612,0.634 45.257,2.301 38.096,9.209C34.04,13.128 31.49,18.747 30.297,21.616C28.978,44.479 51.407,53.638 56.688,57.467C58.385,58.275 62.288,59.993 65.455,61.629C72.769,65.404 77.84,66.185 80.456,66.643C86.156,67.642 95.022,65.385 99.23,60.668C103.262,56.148 104.436,50.05 103.475,44.615C103.183,42.944 103.178,39.972 101.95,35.89L101.954,35.901Z" style="fill:rgb(87,113,56);fill-rule:nonzero;"/>
            <path d="M98.728,33.446C97.201,29.371 95.41,26.667 93.285,23.459C90.683,19.531 88.357,16.854 86.49,14.721C82.507,10.174 80.514,7.9 77.807,6.249C73.136,3.398 68.62,2.883 66.053,2.616C59.995,1.988 55.365,3.272 53.114,3.918C50.798,4.585 46.209,5.952 41.416,9.715C37.074,13.124 34.404,18.257 32.951,21.02C31.617,23.511 39.823,43.505 58.78,55.322C59.75,55.823 62.451,57.056 64.119,57.9C64.662,58.175 65.16,58.421 65.627,58.647C66.38,58.992 67.082,59.322 67.743,59.638C69.872,60.599 71.191,61.088 72.936,62.001C78.981,65.162 85.363,64.261 86.31,64.114C87.565,63.921 96.29,62.571 99.902,55.628C101.807,51.966 101.475,48.32 101.022,43.327C100.894,41.911 100.462,38.08 98.721,33.438" style="fill:rgb(163,179,79);fill-rule:nonzero;"/>
            <path d="M69.456,57.922C75.81,60.355 77.9,61.625 80.621,61.957C81.516,62.064 90.047,62.601 95.048,57.876C98.771,54.361 98.95,50.807 99.164,49.131C99.906,43.36 98.265,35.96 96.349,32.327C93.832,27.555 93.182,26.552 86.432,17.606C81.433,10.99 78.928,9.766 76.319,8.047C71.835,5.115 66.648,5.048 63.127,4.903C60.537,4.798 55.686,5.747 51.036,7.377C43.771,9.932 39.528,14.213 36.547,20.274C33.238,27.264 49.97,50.045 61.605,54.702" style="fill:rgb(221,224,114);fill-rule:nonzero;"/>
            <path d="M71.631,44.247C75.682,43.538 78.379,39.381 79.205,36.013C80.363,31.25 77.967,27.275 76.37,24.624C74.863,22.129 72.213,18.639 67.414,16.692C62.997,14.896 59.566,17.074 57.967,17.965C50.919,28.386 56.379,38.962 66.748,44.243C68.057,44.372 70.601,44.426 71.628,44.247" style="fill:rgb(163,179,79);fill-rule:nonzero;"/>
            <path d="M59.897,54.065C61.676,51.942 65.095,47.539 66.478,44.801C66.568,44.622 66.658,44.433 66.748,44.237C68.24,40.996 69.72,35.386 69.861,30.968C69.987,27.011 68.634,24.337 68.634,24.337C67.254,20.739 63.285,19.506 61.544,18.84C60.115,18.323 58.834,18.058 57.534,17.909C54.975,17.68 51.426,17.954 45.289,18.854C39.21,19.706 33.143,20.866 27.553,22.212C20.776,23.864 17.04,24.773 12.734,26.857C7.761,29.262 3.063,31.535 1.029,36.528C-0.215,39.587 -0.107,42.666 0.203,44.713C0.203,44.713 1.545,58.101 10.758,64.925C18.472,70.646 29.848,72.758 38.327,70.441C45.014,69.17 51.392,62.902 56.694,57.418C57.777,56.321 59.082,55.033 59.899,54.06L59.897,54.065Z" style="fill:rgb(87,113,56);fill-rule:nonzero;"/>
            <path d="M51.503,51.821C45.269,55.481 36.123,60.447 24.677,60.321C24.308,60.317 23.937,60.308 23.563,60.293C19.725,60.138 9.53,59.727 4.284,52.908C2.837,51.024 1.982,48.942 1.519,47.526L1.506,47.496L1.507,47.495C1.226,46.633 1.123,46.125 1.12,46.107C1.04,45.739 0.975,45.38 0.919,45.008L0.912,44.982C0.911,44.978 0.91,44.974 0.91,44.971L0.91,44.97L0.908,44.965C0.614,43.009 0.513,40.076 1.692,37.18C3.622,32.445 7.988,30.333 13.046,27.887C17.284,25.837 20.992,24.934 27.718,23.294C28.58,23.086 29.408,22.888 30.208,22.704C31.112,22.499 31.98,22.305 32.813,22.129C34.446,21.783 36.007,21.477 37.586,21.194L37.594,21.189C40.492,20.673 43.034,20.294 45.392,19.949C51.471,19.058 54.973,18.784 57.469,19.01C58.839,19.13 59.98,19.395 61.285,19.895C63.068,20.578 66.386,21.849 67.989,25.043C68.471,26.006 68.757,27.073 68.839,28.219C68.849,28.33 68.855,28.444 68.858,28.559C68.957,31.437 67.77,34.267 67.133,35.789C63.551,44.317 56.893,48.651 51.5,51.821" style="fill:rgb(163,179,79);fill-rule:nonzero;"/>
            <path d="M47.575,52.242C53.511,49.187 58.326,45.68 60.809,42.949C64.933,38.411 66.614,33.797 66.978,30.045C67.386,25.84 64.742,24.269 63.845,23.504C60.507,20.655 55.969,20.701 51.846,20.685C49.972,20.679 47.283,20.823 39.039,22.619C32.483,24.113 31.143,24.438 23.218,26.604C17.935,28.074 14.956,29.064 12.522,30.593C9.12,32.729 4.885,35.388 3.812,40.516C2.479,46.879 7.185,52.179 8.141,53.182C12.747,57.987 19.096,58.563 23.472,58.579C25.191,58.584 26.819,58.494 28.254,58.414C37.147,57.923 43.269,54.454 47.575,52.245" style="fill:rgb(221,224,114);fill-rule:nonzero;"/>
            <path d="M24.53,26.643C23.849,27.158 22.739,28.25 22.17,28.833L20.586,30.604C17.779,34.13 15.776,40.927 17.296,42.758C18.076,43.698 18.486,43.801 18.765,43.988C22.663,45.873 26.22,48.461 32.034,48.801L36.87,48.795C37.261,48.779 37.836,48.756 38.249,48.725C39.327,48.628 38.857,48.619 39.601,48.54C46.29,47.441 55.198,42.709 54.854,36.084C54.723,33.609 51.895,29.553 49.976,27.724C47.935,25.778 44.121,23.887 43.121,23.53C42.653,23.385 42.094,23.195 41.162,23.031C40.67,22.943 40.185,22.866 39.704,22.81C39.474,22.781 39.244,22.759 39.014,22.736C38.782,22.715 38.553,22.702 38.323,22.688C33.467,22.386 29.108,23.651 25.749,25.792C25.47,25.97 25.196,26.152 24.931,26.341C24.794,26.441 24.661,26.538 24.528,26.641" style="fill:rgb(94,49,8);fill-rule:nonzero;"/>
        </g>
    </g>
</svg>
